<mxfile host="app.diagrams.net" modified="2022-10-21T09:30:05.285Z" agent="5.0 (Macintosh; Intel Mac OS X 10_15_7) AppleWebKit/537.36 (KHTML, like Gecko) Chrome/105.0.0.0 Safari/537.36" etag="PcSEsvwGUJhBse6yx8sL" version="18.0.6" type="github">
  <diagram id="xyc1IyeFzHMTDm4qkxz8" name="第 1 页">
    <mxGraphModel dx="1892" dy="1022" grid="0" gridSize="10" guides="1" tooltips="1" connect="1" arrows="1" fold="1" page="1" pageScale="1" pageWidth="827" pageHeight="1169" math="0" shadow="0">
      <root>
        <mxCell id="0" />
        <mxCell id="1" parent="0" />
        <mxCell id="GzDrLVU5yUvBmtlQHxPb-41" value="HTML和CSS" style="rounded=1;whiteSpace=wrap;html=1;strokeWidth=2;fillWeight=4;hachureGap=8;hachureAngle=45;fillColor=#dae8fc;sketch=0;strokeColor=none;" vertex="1" parent="1">
          <mxGeometry x="51" y="265" width="94" height="35" as="geometry" />
        </mxCell>
        <mxCell id="GzDrLVU5yUvBmtlQHxPb-42" value="" style="shape=curlyBracket;whiteSpace=wrap;html=1;rounded=1;sketch=0;strokeColor=#66B2FF;" vertex="1" parent="1">
          <mxGeometry x="145" y="157" width="20" height="251" as="geometry" />
        </mxCell>
        <mxCell id="GzDrLVU5yUvBmtlQHxPb-43" value="HTML" style="rounded=1;whiteSpace=wrap;html=1;strokeWidth=2;fillWeight=4;hachureGap=8;hachureAngle=45;fillColor=#dae8fc;sketch=0;strokeColor=none;" vertex="1" parent="1">
          <mxGeometry x="168" y="141" width="63" height="29" as="geometry" />
        </mxCell>
        <mxCell id="GzDrLVU5yUvBmtlQHxPb-44" value="CSS" style="rounded=1;whiteSpace=wrap;html=1;strokeWidth=2;fillWeight=4;hachureGap=8;hachureAngle=45;fillColor=#dae8fc;sketch=0;strokeColor=none;" vertex="1" parent="1">
          <mxGeometry x="168" y="396" width="63" height="29" as="geometry" />
        </mxCell>
        <mxCell id="GzDrLVU5yUvBmtlQHxPb-45" value="元素" style="rounded=1;whiteSpace=wrap;html=1;strokeWidth=2;fillWeight=4;hachureGap=8;hachureAngle=45;fillColor=#dae8fc;sketch=0;strokeColor=none;" vertex="1" parent="1">
          <mxGeometry x="254" y="70" width="63" height="29" as="geometry" />
        </mxCell>
        <mxCell id="GzDrLVU5yUvBmtlQHxPb-46" value="语言" style="rounded=1;whiteSpace=wrap;html=1;strokeWidth=2;fillWeight=4;hachureGap=8;hachureAngle=45;fillColor=#dae8fc;sketch=0;strokeColor=none;" vertex="1" parent="1">
          <mxGeometry x="254" y="155" width="63" height="29" as="geometry" />
        </mxCell>
        <mxCell id="GzDrLVU5yUvBmtlQHxPb-47" value="补充标准" style="rounded=1;whiteSpace=wrap;html=1;strokeWidth=2;fillWeight=4;hachureGap=8;hachureAngle=45;fillColor=#dae8fc;sketch=0;strokeColor=none;" vertex="1" parent="1">
          <mxGeometry x="254" y="211" width="63" height="29" as="geometry" />
        </mxCell>
        <mxCell id="GzDrLVU5yUvBmtlQHxPb-48" value="文档元" style="rounded=1;whiteSpace=wrap;html=1;strokeWidth=2;fillWeight=4;hachureGap=8;hachureAngle=45;fillColor=#dae8fc;sketch=0;strokeColor=none;" vertex="1" parent="1">
          <mxGeometry x="347" y="36" width="75" height="21" as="geometry" />
        </mxCell>
        <mxCell id="GzDrLVU5yUvBmtlQHxPb-49" value="语义相关" style="rounded=1;whiteSpace=wrap;html=1;strokeWidth=2;fillWeight=4;hachureGap=8;hachureAngle=45;fillColor=#dae8fc;sketch=0;strokeColor=none;" vertex="1" parent="1">
          <mxGeometry x="347" y="63" width="75" height="21" as="geometry" />
        </mxCell>
        <mxCell id="GzDrLVU5yUvBmtlQHxPb-50" value="实体" style="rounded=1;whiteSpace=wrap;html=1;strokeWidth=2;fillWeight=4;hachureGap=8;hachureAngle=45;fillColor=#dae8fc;sketch=0;strokeColor=none;" vertex="1" parent="1">
          <mxGeometry x="347" y="143" width="75" height="21" as="geometry" />
        </mxCell>
        <mxCell id="GzDrLVU5yUvBmtlQHxPb-54" value="..." style="rounded=1;whiteSpace=wrap;html=1;strokeWidth=2;fillWeight=4;hachureGap=8;hachureAngle=45;fillColor=#dae8fc;sketch=0;strokeColor=none;" vertex="1" parent="1">
          <mxGeometry x="347" y="94" width="75" height="21" as="geometry" />
        </mxCell>
        <mxCell id="GzDrLVU5yUvBmtlQHxPb-56" value="命名空间" style="rounded=1;whiteSpace=wrap;html=1;strokeWidth=2;fillWeight=4;hachureGap=8;hachureAngle=45;fillColor=#dae8fc;sketch=0;strokeColor=none;" vertex="1" parent="1">
          <mxGeometry x="347" y="175" width="75" height="21" as="geometry" />
        </mxCell>
        <mxCell id="GzDrLVU5yUvBmtlQHxPb-61" value="" style="shape=curlyBracket;whiteSpace=wrap;html=1;rounded=1;sketch=0;strokeColor=#66B2FF;" vertex="1" parent="1">
          <mxGeometry x="231" y="55" width="20" height="201" as="geometry" />
        </mxCell>
        <mxCell id="GzDrLVU5yUvBmtlQHxPb-62" value="语言" style="rounded=1;whiteSpace=wrap;html=1;strokeWidth=2;fillWeight=4;hachureGap=8;hachureAngle=45;fillColor=#dae8fc;sketch=0;strokeColor=none;" vertex="1" parent="1">
          <mxGeometry x="258" y="313" width="63" height="29" as="geometry" />
        </mxCell>
        <mxCell id="GzDrLVU5yUvBmtlQHxPb-63" value="功能" style="rounded=1;whiteSpace=wrap;html=1;strokeWidth=2;fillWeight=4;hachureGap=8;hachureAngle=45;fillColor=#dae8fc;sketch=0;strokeColor=none;" vertex="1" parent="1">
          <mxGeometry x="255" y="462" width="63" height="29" as="geometry" />
        </mxCell>
        <mxCell id="GzDrLVU5yUvBmtlQHxPb-64" value="@rule" style="rounded=1;whiteSpace=wrap;html=1;strokeWidth=2;fillWeight=4;hachureGap=8;hachureAngle=45;fillColor=#dae8fc;sketch=0;strokeColor=none;" vertex="1" parent="1">
          <mxGeometry x="340" y="273" width="75" height="21" as="geometry" />
        </mxCell>
        <mxCell id="GzDrLVU5yUvBmtlQHxPb-65" value="选择器" style="rounded=1;whiteSpace=wrap;html=1;strokeWidth=2;fillWeight=4;hachureGap=8;hachureAngle=45;fillColor=#dae8fc;sketch=0;strokeColor=none;" vertex="1" parent="1">
          <mxGeometry x="340" y="308" width="75" height="21" as="geometry" />
        </mxCell>
        <mxCell id="GzDrLVU5yUvBmtlQHxPb-66" value="单位" style="rounded=1;whiteSpace=wrap;html=1;strokeWidth=2;fillWeight=4;hachureGap=8;hachureAngle=45;fillColor=#dae8fc;sketch=0;strokeColor=none;" vertex="1" parent="1">
          <mxGeometry x="340" y="348" width="75" height="21" as="geometry" />
        </mxCell>
        <mxCell id="GzDrLVU5yUvBmtlQHxPb-67" value="布局" style="rounded=1;whiteSpace=wrap;html=1;strokeWidth=2;fillWeight=4;hachureGap=8;hachureAngle=45;fillColor=#dae8fc;sketch=0;strokeColor=none;" vertex="1" parent="1">
          <mxGeometry x="340" y="413" width="75" height="21" as="geometry" />
        </mxCell>
        <mxCell id="GzDrLVU5yUvBmtlQHxPb-68" value="绘制" style="rounded=1;whiteSpace=wrap;html=1;strokeWidth=2;fillWeight=4;hachureGap=8;hachureAngle=45;fillColor=#dae8fc;sketch=0;strokeColor=none;" vertex="1" parent="1">
          <mxGeometry x="340" y="468" width="75" height="21" as="geometry" />
        </mxCell>
        <mxCell id="GzDrLVU5yUvBmtlQHxPb-69" value="交互" style="rounded=1;whiteSpace=wrap;html=1;strokeWidth=2;fillWeight=4;hachureGap=8;hachureAngle=45;fillColor=#dae8fc;sketch=0;strokeColor=none;" vertex="1" parent="1">
          <mxGeometry x="340" y="522" width="75" height="21" as="geometry" />
        </mxCell>
        <mxCell id="GzDrLVU5yUvBmtlQHxPb-70" value="正常流" style="rounded=1;whiteSpace=wrap;html=1;strokeWidth=2;fillWeight=4;hachureGap=8;hachureAngle=45;fillColor=#dae8fc;sketch=0;strokeColor=none;" vertex="1" parent="1">
          <mxGeometry x="425" y="392" width="75" height="21" as="geometry" />
        </mxCell>
        <mxCell id="GzDrLVU5yUvBmtlQHxPb-71" value="弹性布局" style="rounded=1;whiteSpace=wrap;html=1;strokeWidth=2;fillWeight=4;hachureGap=8;hachureAngle=45;fillColor=#dae8fc;sketch=0;strokeColor=none;" vertex="1" parent="1">
          <mxGeometry x="425" y="423" width="75" height="21" as="geometry" />
        </mxCell>
        <mxCell id="GzDrLVU5yUvBmtlQHxPb-72" value="颜色和形状" style="rounded=1;whiteSpace=wrap;html=1;strokeWidth=2;fillWeight=4;hachureGap=8;hachureAngle=45;fillColor=#dae8fc;sketch=0;strokeColor=none;" vertex="1" parent="1">
          <mxGeometry x="425" y="454" width="75" height="21" as="geometry" />
        </mxCell>
        <mxCell id="GzDrLVU5yUvBmtlQHxPb-73" value="文字相关" style="rounded=1;whiteSpace=wrap;html=1;strokeWidth=2;fillWeight=4;hachureGap=8;hachureAngle=45;fillColor=#dae8fc;sketch=0;strokeColor=none;" vertex="1" parent="1">
          <mxGeometry x="425" y="481" width="75" height="21" as="geometry" />
        </mxCell>
        <mxCell id="GzDrLVU5yUvBmtlQHxPb-74" value="动画" style="rounded=1;whiteSpace=wrap;html=1;strokeWidth=2;fillWeight=4;hachureGap=8;hachureAngle=45;fillColor=#dae8fc;sketch=0;strokeColor=none;" vertex="1" parent="1">
          <mxGeometry x="425" y="508" width="75" height="21" as="geometry" />
        </mxCell>
        <mxCell id="GzDrLVU5yUvBmtlQHxPb-75" value="其他" style="rounded=1;whiteSpace=wrap;html=1;strokeWidth=2;fillWeight=4;hachureGap=8;hachureAngle=45;fillColor=#dae8fc;sketch=0;strokeColor=none;" vertex="1" parent="1">
          <mxGeometry x="425" y="538" width="75" height="21" as="geometry" />
        </mxCell>
        <mxCell id="GzDrLVU5yUvBmtlQHxPb-76" value="" style="shape=curlyBracket;whiteSpace=wrap;html=1;rounded=1;sketch=0;strokeColor=#66B2FF;" vertex="1" parent="1">
          <mxGeometry x="231" y="298" width="20" height="213" as="geometry" />
        </mxCell>
        <mxCell id="GzDrLVU5yUvBmtlQHxPb-77" value="JavaScript" style="rounded=1;whiteSpace=wrap;html=1;strokeWidth=2;fillWeight=4;hachureGap=8;hachureAngle=45;fillColor=#ffe6cc;sketch=0;strokeColor=none;" vertex="1" parent="1">
          <mxGeometry x="82" y="805" width="63" height="29" as="geometry" />
        </mxCell>
        <mxCell id="GzDrLVU5yUvBmtlQHxPb-78" value="运行时" style="rounded=1;whiteSpace=wrap;html=1;strokeWidth=2;fillWeight=4;hachureGap=8;hachureAngle=45;fillColor=#ffe6cc;sketch=0;strokeColor=none;" vertex="1" parent="1">
          <mxGeometry x="165" y="695" width="63" height="29" as="geometry" />
        </mxCell>
        <mxCell id="GzDrLVU5yUvBmtlQHxPb-79" value="文法" style="rounded=1;whiteSpace=wrap;html=1;strokeWidth=2;fillWeight=4;hachureGap=8;hachureAngle=45;fillColor=#ffe6cc;sketch=0;strokeColor=none;" vertex="1" parent="1">
          <mxGeometry x="165" y="859" width="63" height="29" as="geometry" />
        </mxCell>
        <mxCell id="GzDrLVU5yUvBmtlQHxPb-80" value="语义" style="rounded=1;whiteSpace=wrap;html=1;strokeWidth=2;fillWeight=4;hachureGap=8;hachureAngle=45;fillColor=#ffe6cc;sketch=0;strokeColor=none;" vertex="1" parent="1">
          <mxGeometry x="165" y="918" width="63" height="29" as="geometry" />
        </mxCell>
        <mxCell id="GzDrLVU5yUvBmtlQHxPb-82" value="词法" style="rounded=1;whiteSpace=wrap;html=1;strokeWidth=2;fillWeight=4;hachureGap=8;hachureAngle=45;fillColor=#ffe6cc;sketch=0;strokeColor=none;" vertex="1" parent="1">
          <mxGeometry x="248" y="845" width="75" height="21" as="geometry" />
        </mxCell>
        <mxCell id="GzDrLVU5yUvBmtlQHxPb-83" value="语法" style="rounded=1;whiteSpace=wrap;html=1;strokeWidth=2;fillWeight=4;hachureGap=8;hachureAngle=45;fillColor=#ffe6cc;sketch=0;strokeColor=none;" vertex="1" parent="1">
          <mxGeometry x="248" y="879" width="75" height="21" as="geometry" />
        </mxCell>
        <mxCell id="GzDrLVU5yUvBmtlQHxPb-84" value="数据结构" style="rounded=1;whiteSpace=wrap;html=1;strokeWidth=2;fillWeight=4;hachureGap=8;hachureAngle=45;fillColor=#ffe6cc;sketch=0;strokeColor=none;" vertex="1" parent="1">
          <mxGeometry x="244" y="623" width="63" height="29" as="geometry" />
        </mxCell>
        <mxCell id="GzDrLVU5yUvBmtlQHxPb-85" value="执行过程" style="rounded=1;whiteSpace=wrap;html=1;strokeWidth=2;fillWeight=4;hachureGap=8;hachureAngle=45;fillColor=#ffe6cc;sketch=0;strokeColor=none;" vertex="1" parent="1">
          <mxGeometry x="244" y="764" width="63" height="29" as="geometry" />
        </mxCell>
        <mxCell id="GzDrLVU5yUvBmtlQHxPb-92" value="对象" style="rounded=1;whiteSpace=wrap;html=1;strokeWidth=2;fillWeight=4;hachureGap=8;hachureAngle=45;fillColor=#ffe6cc;sketch=0;strokeColor=none;" vertex="1" parent="1">
          <mxGeometry x="425" y="602" width="75" height="21" as="geometry" />
        </mxCell>
        <mxCell id="GzDrLVU5yUvBmtlQHxPb-93" value="应用和机制" style="rounded=1;whiteSpace=wrap;html=1;strokeWidth=2;fillWeight=4;hachureGap=8;hachureAngle=45;fillColor=#ffe6cc;sketch=0;strokeColor=none;" vertex="1" parent="1">
          <mxGeometry x="425" y="643" width="75" height="21" as="geometry" />
        </mxCell>
        <mxCell id="GzDrLVU5yUvBmtlQHxPb-94" value="事件循环" style="rounded=1;whiteSpace=wrap;html=1;strokeWidth=2;fillWeight=4;hachureGap=8;hachureAngle=45;fillColor=#ffe6cc;sketch=0;strokeColor=none;" vertex="1" parent="1">
          <mxGeometry x="334" y="725" width="75" height="21" as="geometry" />
        </mxCell>
        <mxCell id="GzDrLVU5yUvBmtlQHxPb-95" value="微任务的执行" style="rounded=1;whiteSpace=wrap;html=1;strokeWidth=2;fillWeight=4;hachureGap=8;hachureAngle=45;fillColor=#ffe6cc;sketch=0;strokeColor=none;" vertex="1" parent="1">
          <mxGeometry x="334" y="752" width="75" height="21" as="geometry" />
        </mxCell>
        <mxCell id="GzDrLVU5yUvBmtlQHxPb-96" value="函数的执行" style="rounded=1;whiteSpace=wrap;html=1;strokeWidth=2;fillWeight=4;hachureGap=8;hachureAngle=45;fillColor=#ffe6cc;sketch=0;strokeColor=none;" vertex="1" parent="1">
          <mxGeometry x="334" y="777" width="75" height="21" as="geometry" />
        </mxCell>
        <mxCell id="GzDrLVU5yUvBmtlQHxPb-97" value="语句级的执行" style="rounded=1;whiteSpace=wrap;html=1;strokeWidth=2;fillWeight=4;hachureGap=8;hachureAngle=45;fillColor=#ffe6cc;sketch=0;strokeColor=none;" vertex="1" parent="1">
          <mxGeometry x="334" y="805" width="75" height="21" as="geometry" />
        </mxCell>
        <mxCell id="GzDrLVU5yUvBmtlQHxPb-98" value="" style="shape=curlyBracket;whiteSpace=wrap;html=1;rounded=1;sketch=0;strokeColor=#66B2FF;" vertex="1" parent="1">
          <mxGeometry x="145" y="685" width="20" height="269" as="geometry" />
        </mxCell>
        <mxCell id="GzDrLVU5yUvBmtlQHxPb-101" value="" style="shape=curlyBracket;whiteSpace=wrap;html=1;rounded=1;sketch=0;strokeColor=#66B2FF;" vertex="1" parent="1">
          <mxGeometry x="228" y="618" width="20" height="177" as="geometry" />
        </mxCell>
        <mxCell id="GzDrLVU5yUvBmtlQHxPb-102" value="" style="shape=curlyBracket;whiteSpace=wrap;html=1;rounded=1;sketch=0;strokeColor=#66B2FF;" vertex="1" parent="1">
          <mxGeometry x="307" y="598" width="20" height="74" as="geometry" />
        </mxCell>
        <mxCell id="GzDrLVU5yUvBmtlQHxPb-103" value="" style="shape=curlyBracket;whiteSpace=wrap;html=1;rounded=1;sketch=0;strokeColor=#66B2FF;" vertex="1" parent="1">
          <mxGeometry x="307" y="720" width="20" height="111" as="geometry" />
        </mxCell>
        <mxCell id="GzDrLVU5yUvBmtlQHxPb-104" value="类型" style="rounded=1;whiteSpace=wrap;html=1;strokeWidth=2;fillWeight=4;hachureGap=8;hachureAngle=45;fillColor=#ffe6cc;sketch=0;strokeColor=none;" vertex="1" parent="1">
          <mxGeometry x="334" y="602" width="75" height="21" as="geometry" />
        </mxCell>
        <mxCell id="GzDrLVU5yUvBmtlQHxPb-105" value="实例" style="rounded=1;whiteSpace=wrap;html=1;strokeWidth=2;fillWeight=4;hachureGap=8;hachureAngle=45;fillColor=#ffe6cc;sketch=0;strokeColor=none;" vertex="1" parent="1">
          <mxGeometry x="334" y="643" width="75" height="21" as="geometry" />
        </mxCell>
        <mxCell id="GzDrLVU5yUvBmtlQHxPb-106" value="浏览器的实现原理和API" style="rounded=1;whiteSpace=wrap;html=1;strokeWidth=2;fillWeight=4;hachureGap=8;hachureAngle=45;fillColor=#e1d5e7;sketch=0;strokeColor=none;" vertex="1" parent="1">
          <mxGeometry x="6" y="1028" width="139" height="29" as="geometry" />
        </mxCell>
        <mxCell id="GzDrLVU5yUvBmtlQHxPb-107" value="" style="shape=curlyBracket;whiteSpace=wrap;html=1;rounded=1;sketch=0;strokeColor=#66B2FF;" vertex="1" parent="1">
          <mxGeometry x="145" y="982.5" width="20" height="120" as="geometry" />
        </mxCell>
        <mxCell id="GzDrLVU5yUvBmtlQHxPb-108" value="实现原理" style="rounded=1;whiteSpace=wrap;html=1;strokeWidth=2;fillWeight=4;hachureGap=8;hachureAngle=45;fillColor=#e1d5e7;sketch=0;strokeColor=none;" vertex="1" parent="1">
          <mxGeometry x="165" y="988" width="63" height="29" as="geometry" />
        </mxCell>
        <mxCell id="GzDrLVU5yUvBmtlQHxPb-109" value="API" style="rounded=1;whiteSpace=wrap;html=1;strokeWidth=2;fillWeight=4;hachureGap=8;hachureAngle=45;fillColor=#e1d5e7;sketch=0;strokeColor=none;" vertex="1" parent="1">
          <mxGeometry x="165" y="1069.75" width="63" height="29" as="geometry" />
        </mxCell>
        <mxCell id="GzDrLVU5yUvBmtlQHxPb-111" value="解析" style="rounded=1;whiteSpace=wrap;html=1;strokeWidth=2;fillWeight=4;hachureGap=8;hachureAngle=45;fillColor=#e1d5e7;sketch=0;strokeColor=none;" vertex="1" parent="1">
          <mxGeometry x="248" y="944" width="75" height="21" as="geometry" />
        </mxCell>
        <mxCell id="GzDrLVU5yUvBmtlQHxPb-112" value="构建DOM树" style="rounded=1;whiteSpace=wrap;html=1;strokeWidth=2;fillWeight=4;hachureGap=8;hachureAngle=45;fillColor=#e1d5e7;sketch=0;strokeColor=none;" vertex="1" parent="1">
          <mxGeometry x="248" y="973" width="75" height="21" as="geometry" />
        </mxCell>
        <mxCell id="GzDrLVU5yUvBmtlQHxPb-113" value="计算CSS" style="rounded=1;whiteSpace=wrap;html=1;strokeWidth=2;fillWeight=4;hachureGap=8;hachureAngle=45;fillColor=#e1d5e7;sketch=0;strokeColor=none;" vertex="1" parent="1">
          <mxGeometry x="248" y="1002" width="75" height="21" as="geometry" />
        </mxCell>
        <mxCell id="GzDrLVU5yUvBmtlQHxPb-114" value="渲染、合成和绘制" style="rounded=1;whiteSpace=wrap;html=1;strokeWidth=2;fillWeight=4;hachureGap=8;hachureAngle=45;fillColor=#e1d5e7;sketch=0;strokeColor=none;" vertex="1" parent="1">
          <mxGeometry x="248" y="1031" width="105" height="21" as="geometry" />
        </mxCell>
        <mxCell id="GzDrLVU5yUvBmtlQHxPb-115" value="DOM" style="rounded=1;whiteSpace=wrap;html=1;strokeWidth=2;fillWeight=4;hachureGap=8;hachureAngle=45;fillColor=#e1d5e7;sketch=0;strokeColor=none;" vertex="1" parent="1">
          <mxGeometry x="248" y="1056.5" width="75" height="21" as="geometry" />
        </mxCell>
        <mxCell id="GzDrLVU5yUvBmtlQHxPb-116" value="事件" style="rounded=1;whiteSpace=wrap;html=1;strokeWidth=2;fillWeight=4;hachureGap=8;hachureAngle=45;fillColor=#e1d5e7;sketch=0;strokeColor=none;" vertex="1" parent="1">
          <mxGeometry x="248" y="1091" width="75" height="21" as="geometry" />
        </mxCell>
        <mxCell id="GzDrLVU5yUvBmtlQHxPb-117" value="" style="shape=curlyBracket;whiteSpace=wrap;html=1;rounded=1;sketch=0;strokeColor=#66B2FF;" vertex="1" parent="1">
          <mxGeometry x="228" y="944" width="20" height="108" as="geometry" />
        </mxCell>
        <mxCell id="GzDrLVU5yUvBmtlQHxPb-118" value="" style="shape=curlyBracket;whiteSpace=wrap;html=1;rounded=1;sketch=0;strokeColor=#66B2FF;" vertex="1" parent="1">
          <mxGeometry x="228" y="1054" width="20" height="60.5" as="geometry" />
        </mxCell>
        <mxCell id="GzDrLVU5yUvBmtlQHxPb-119" value="" style="shape=curlyBracket;whiteSpace=wrap;html=1;rounded=1;sketch=0;strokeColor=#66B2FF;" vertex="1" parent="1">
          <mxGeometry x="228" y="840" width="20" height="67" as="geometry" />
        </mxCell>
      </root>
    </mxGraphModel>
  </diagram>
</mxfile>
